<?xml version="1.0" encoding="utf-8"?>
<!-- Generator: Adobe Illustrator 21.0.2, SVG Export Plug-In . SVG Version: 6.00 Build 0)  -->
<svg version="1.1" id="Layer_1" xmlns="http://www.w3.org/2000/svg" xmlns:xlink="http://www.w3.org/1999/xlink" x="0px" y="0px"
	 viewBox="0 0 1280 360" style="enable-background:new 0 0 1280 360;" xml:space="preserve">
<style type="text/css">
	.st0{fill:#DCEEEB;}
	.st1{fill:#F6FAFB;}
	.st2{fill:#FCFDFF;}
	.st3{fill:#EDF6F8;}
	.st4{fill:#F2F9FB;}
	.st5{fill:#EDF7F8;}
	.st6{fill:#E8F5F5;}
	.st7{fill:#DEF0F1;}
	.st8{fill:#E5F3F4;}
	.st9{fill:#DFF0F1;}
	.st10{fill:#D1EAE6;}
	.st11{fill:#CCE6E0;}
	.st12{fill:#C5E1D7;}
	.st13{fill:#B7D7C8;}
	.st14{fill:#BEDDD2;}
	.st15{fill:#ADCEBB;}
	.st16{fill:#AFD0BC;}
	.st17{fill:#A4C7AD;}
	.st18{fill:#A1C3A6;}
	.st19{fill:#9ABD9E;}
	.st20{fill:#93B795;}
	.st21{fill:#8DAE87;}
	.st22{fill:#8AA783;}
	.st23{fill:#88A984;}
	.st24{fill:#84A283;}
	.st25{fill:#879E82;}
	.st26{fill:#809A82;}
	.st27{fill:#659173;}
	.st28{fill:#E8F5F8;}
	.st29{fill:#DCEFF2;}
	.st30{fill:#DBEFF1;}
	.st31{fill:#D4ECEE;}
	.st32{fill:#D5ECEE;}
	.st33{fill:#CCE8E5;}
	.st34{fill:#C0E2DE;}
	.st35{fill:#B9DFD5;}
	.st36{fill:#ADD9CF;}
	.st37{fill:#A2D2BF;}
	.st38{fill:#A4CEBB;}
	.st39{fill:#9AC6AC;}
	.st40{fill:#8DC2A5;}
	.st41{fill:#89BA9B;}
	.st42{fill:#86B491;}
	.st43{fill:#80AB84;}
	.st44{fill:#7BA682;}
	.st45{fill:#79A182;}
	.st46{fill:#7C9E82;}
	.st47{fill:#B4DDDF;}
	.st48{fill:#ACD9DB;}
	.st49{fill:#CAE7E4;}
	.st50{fill:#A7D7D9;}
	.st51{fill:#96CFD1;}
	.st52{fill:#71B4B7;}
	.st53{fill:#7BC0C3;}
	.st54{fill:#6CAAAD;}
	.st55{fill:#599092;}
	.st56{fill:#639597;}
	.st57{fill:#6D9677;}
	.st58{fill:#4E8056;}
	.st59{fill:#9DCBCD;}
	.st60{fill:#A8D5D7;}
	.st61{fill:#A2D4D6;}
	.st62{fill:#96CED0;}
	.st63{fill:#99D0D2;}
	.st64{fill:#8DCACC;}
	.st65{fill:#8CC9CC;}
	.st66{fill:#7FBFC2;}
	.st67{fill:#74B6B9;}
	.st68{fill:#65A4A7;}
	.st69{fill:#61A0A3;}
	.st70{fill:#66A4A7;}
	.st71{fill:#589395;}
	.st72{fill:#5C9698;}
	.st73{fill:#4E8183;}
	.st74{fill:#487678;}
	.st75{fill:#527E80;}
	.st76{fill:#37672F;}
	.st77{fill:#87B1B3;}
	.st78{fill:#86B8BA;}
	.st79{fill:#7DADAF;}
	.st80{fill:#83B8BA;}
	.st81{fill:#75AAAC;}
	.st82{fill:#79B2B4;}
	.st83{fill:#72ACAE;}
	.st84{fill:#649B9D;}
	.st85{fill:#60989A;}
	.st86{fill:#63A1A4;}
	.st87{fill:#589092;}
	.st88{fill:#579193;}
	.st89{fill:#4B7C7E;}
	.st90{fill:#508587;}
	.st91{fill:#457A7C;}
	.st92{fill:#4C8183;}
	.st93{fill:#3D7173;}
	.st94{fill:#427274;}
	.st95{fill:#396769;}
	.st96{fill:#2E5355;}
	.st97{fill:#81A2A3;}
	.st98{fill:#7B9A9B;}
	.st99{fill:#7A9FA0;}
	.st100{fill:#719293;}
	.st101{fill:#6C8F90;}
	.st102{fill:#6C9597;}
	.st103{fill:#628F91;}
	.st104{fill:#5D8283;}
	.st105{fill:#567E80;}
	.st106{fill:#59888A;}
	.st107{fill:#528284;}
	.st108{fill:#497577;}
	.st109{fill:#436F71;}
	.st110{fill:#385E60;}
	.st111{fill:#305759;}
	.st112{fill:#396668;}
	.st113{fill:#244546;}
	.st114{fill:#4C725A;}
</style>
<g>
	<path class="st0" d="M-38.5-339.9l-7.7,508.7l23.1-264.2L-38.5-339.9z"/>
	<path class="st1" d="M-38.5-339.9l15.4,244.5l39.3-160.7L-38.5-339.9z"/>
	<path class="st2" d="M-38.5-339.9l54.7,83.8l67.5-102.6L-38.5-339.9z"/>
	<path class="st3" d="M-38.5-339.9l122.3-18.8l424-70.1L-38.5-339.9z"/>
	<path class="st4" d="M83.8-358.7L16.2-256.1l138.5,25.6L83.8-358.7z"/>
	<path class="st5" d="M83.8-358.7l71,128.2l66.7-116.3L83.8-358.7z"/>
	<path class="st6" d="M83.8-358.7l137.6,12l177.8-44.5L83.8-358.7z"/>
	<path class="st7" d="M83.8-358.7l315.5-32.5l108.6-37.6L83.8-358.7z"/>
	<path class="st8" d="M221.4-346.8l-66.7,116.3L270.1-245L221.4-346.8z"/>
	<path class="st9" d="M221.4-346.8L270.1-245l82.9-12.8L221.4-346.8z"/>
	<path class="st7" d="M221.4-346.8l131.7,88.9l46.2-133.4L221.4-346.8z"/>
	<path class="st10" d="M399.2-391.2L353-257.8l206-38.5L399.2-391.2z"/>
	<path class="st11" d="M399.2-391.2l159.9,94.9l-51.3-132.5L399.2-391.2z"/>
	<path class="st12" d="M507.8-428.8l51.3,132.5l40.2-65.8L507.8-428.8z"/>
	<path class="st13" d="M507.8-428.8l91.5,66.7L904.5-434L507.8-428.8z"/>
	<path class="st14" d="M599.3-362.2l-40.2,65.8l88.1,4.3L599.3-362.2z"/>
	<path class="st13" d="M599.3-362.2l47.9,70.1l112-47.9L599.3-362.2z"/>
	<path class="st15" d="M599.3-362.2L759.2-340l145.3-94L599.3-362.2z"/>
	<path class="st16" d="M759.1-339.9l-112,47.9l170.1-14.5L759.1-339.9z"/>
	<path class="st17" d="M759.1-339.9l58.1,33.3L904.5-434L759.1-339.9z"/>
	<path class="st18" d="M904.5-434l-87.2,127.4l77.8,75.2L904.5-434z"/>
	<path class="st19" d="M904.5-434l-9.4,202.6l90.6-201.8L904.5-434z"/>
	<path class="st20" d="M985.7-433.1l-90.6,201.8l166.7-37.6L985.7-433.1z"/>
	<path class="st21" d="M985.7-433.1l76.1,164.1l87.2-97.5L985.7-433.1z"/>
	<path class="st22" d="M985.7-433.1l163.3,66.7l124-22.2L985.7-433.1z"/>
	<path class="st23" d="M1149-366.4l-87.2,97.5l79.5,58.1L1149-366.4z"/>
	<path class="st24" d="M1149-366.4l-7.7,155.6l128.2-22.2L1149-366.4z"/>
	<path class="st25" d="M1149-366.4L1269.5-233l3.4-155.6L1149-366.4z"/>
	<path class="st26" d="M1273-388.7l-3.4,155.6l3.4,53.9V-388.7z"/>
	<path class="st27" d="M1273-388.7v209.5l60.7,477.9L1273-388.7z"/>
	<path class="st28" d="M16.2-256.1L-23.1-95.4L100-132.2L16.2-256.1z"/>
	<path class="st28" d="M16.2-256.1l83.8,124l54.7-98.3L16.2-256.1z"/>
	<path class="st29" d="M154.7-230.5L100-132.2l186.4-8.5L154.7-230.5z"/>
	<path class="st30" d="M154.7-230.5l131.7,89.8L270.1-245L154.7-230.5z"/>
	<path class="st31" d="M270.1-245l16.2,104.3l81.2-25.6L270.1-245z"/>
	<path class="st32" d="M270.1-245l97.5,78.7l-14.5-91.5L270.1-245z"/>
	<path class="st33" d="M353.1-257.9l14.5,91.5l191.5-130L353.1-257.9z"/>
	<path class="st34" d="M559.1-296.3l-191.5,130l167.6,34.2L559.1-296.3z"/>
	<path class="st35" d="M559.1-296.3l-23.9,164.2l112-159.9L559.1-296.3z"/>
	<path class="st36" d="M647.2-292l-112,159.9l124,53.9L647.2-292z"/>
	<path class="st37" d="M647.2-292l12,213.7l126.5-8.5L647.2-292z"/>
	<path class="st38" d="M647.2-292L785.6-86.9l31.6-219.7L647.2-292z"/>
	<path class="st39" d="M817.3-306.6L785.6-86.9L895-231.4L817.3-306.6z"/>
	<path class="st40" d="M895.1-231.3L785.6-86.9l76.1-17.1L895.1-231.3z"/>
	<path class="st41" d="M895.1-231.3L861.7-104l208.6-59.8L895.1-231.3z"/>
	<path class="st42" d="M895.1-231.3l175.3,67.5l-8.5-105.2L895.1-231.3z"/>
	<path class="st43" d="M1061.8-269l8.5,105.2l71-47L1061.8-269z"/>
	<path class="st44" d="M1141.3-210.8l-71,47l99.2,57.3L1141.3-210.8z"/>
	<path class="st45" d="M1141.3-210.8l28.2,104.3l103.4-72.7L1141.3-210.8z"/>
	<path class="st46" d="M1141.3-210.8l131.7,31.6l-3.4-53.9L1141.3-210.8z"/>
	<path class="st47" d="M-23.1-95.4l-23.1,264.2L0.8-0.5L-23.1-95.4z"/>
	<path class="st48" d="M-23.1-95.4L0.8-0.5l110.3-11.1L-23.1-95.4z"/>
	<path class="st47" d="M-23.1-95.4l134.2,83.8L100-132.2L-23.1-95.4z"/>
	<path class="st48" d="M100-132.2l11.1,120.6l100-2.6L100-132.2z"/>
	<path class="st49" d="M100-132.2l111.1,118l75.2-126.5L100-132.2z"/>
	<path class="st48" d="M286.4-140.7L211.1-14.2l159,42.7L286.4-140.7z"/>
	<path class="st47" d="M286.4-140.7l83.8,169.3l-2.6-194.9L286.4-140.7z"/>
	<path class="st50" d="M367.6-166.4l2.6,194.9l165-160.7L367.6-166.4z"/>
	<path class="st51" d="M535.2-132.2l-165,160.7L566-6.5L535.2-132.2z"/>
	<path class="st47" d="M535.2-132.2L566-6.5l93.2-71.8L535.2-132.2z"/>
	<path class="st50" d="M659.1-78.3L565.9-6.5l88.9-29.9L659.1-78.3z"/>
	<path class="st52" d="M659.1-78.3l-4.3,41.9L771.1-1.3L659.1-78.3z"/>
	<path class="st53" d="M659.1-78.3l112,76.9l14.5-85.5L659.1-78.3z"/>
	<path class="st54" d="M785.6-86.9L771.1-1.4L861.7-104L785.6-86.9z"/>
	<path class="st52" d="M861.7-104L771.1-1.4l149.6,38.5L861.7-104z"/>
	<path class="st54" d="M861.7-104l59,141.1l148.8-55.6L861.7-104z"/>
	<path class="st52" d="M861.7-104l207.7,85.5l0.9-145.3L861.7-104z"/>
	<path class="st55" d="M1070.3-163.8l-0.9,145.3l100-88.1L1070.3-163.8z"/>
	<path class="st56" d="M1169.5-106.5l-100,88.1l82.1,30.8L1169.5-106.5z"/>
	<path class="st56" d="M1169.5-106.5l-18,118.8l128.2-59L1169.5-106.5z"/>
	<path class="st57" d="M1169.5-106.5l110.3,59.8l-6.8-132.5L1169.5-106.5z"/>
	<path class="st58" d="M1273-179.2l6.8,132.5l53.9,345.4L1273-179.2z"/>
	<path class="st59" d="M0.8-0.5l-47,169.3l177-32.5L0.8-0.5z"/>
	<path class="st60" d="M0.8-0.5l130,136.8L111.1-11.6L0.8-0.5z"/>
	<path class="st61" d="M111.1-11.6l19.7,147.9l80.3-150.5L111.1-11.6z"/>
	<path class="st62" d="M211.1-14.2l-80.4,150.5l130.8-41.9L211.1-14.2z"/>
	<path class="st63" d="M211.1-14.2l50.4,108.6l108.6-65.8L211.1-14.2z"/>
	<path class="st64" d="M370.2,28.6L261.6,94.4l148.8-2.6L370.2,28.6z"/>
	<path class="st65" d="M370.2,28.6l40.2,63.3L566-6.4L370.2,28.6z"/>
	<path class="st66" d="M565.9-6.5L410.3,91.8l82.1,49.6L565.9-6.5z"/>
	<path class="st67" d="M565.9-6.5l-73.5,147.9l180.4,2.6L565.9-6.5z"/>
	<path class="st53" d="M565.9-6.5L672.8,144l-18-180.4L565.9-6.5z"/>
	<path class="st67" d="M654.9-36.4l18,180.4L771.2-1.3L654.9-36.4z"/>
	<path class="st68" d="M771.1-1.4L672.8,144l89.8,30.8L771.1-1.4z"/>
	<path class="st69" d="M771.1-1.4l-8.5,176.1l112-75.2L771.1-1.4z"/>
	<path class="st70" d="M771.1-1.4L874.5,99.5l46.2-62.4L771.1-1.4z"/>
	<path class="st71" d="M920.7,37.1l-46.2,62.4l187.2,0.9L920.7,37.1z"/>
	<path class="st72" d="M920.7,37.1l141.1,63.3l7.7-118.8L920.7,37.1z"/>
	<path class="st55" d="M1069.5-18.5l-7.7,118.8l89.8-88L1069.5-18.5z"/>
	<path class="st73" d="M1151.6,12.3l-89.8,88l70.1,21.4L1151.6,12.3z"/>
	<path class="st74" d="M1151.6,12.3l-19.7,109.4l165,48.7L1151.6,12.3z"/>
	<path class="st75" d="M1151.6,12.3l145.3,158.2l-17.1-217.2L1151.6,12.3z"/>
	<path class="st76" d="M1279.8-46.7l17.1,217.2l36.8,128.2L1279.8-46.7z"/>
	<path class="st77" d="M-46.2,168.8l3.4,75.2l123.1,21.4L-46.2,168.8z"/>
	<path class="st78" d="M-46.2,168.8l126.5,96.6l50.4-129.1L-46.2,168.8z"/>
	<path class="st79" d="M130.8,136.3L80.3,265.4l144.5-0.9L130.8,136.3z"/>
	<path class="st80" d="M130.8,136.3l94,128.2l36.8-170.1L130.8,136.3z"/>
	<path class="st81" d="M261.6,94.4l-36.8,170.1l171.8,25.6L261.6,94.4z"/>
	<path class="st82" d="M261.6,94.4l135.1,195.8l13.7-198.3L261.6,94.4z"/>
	<path class="st83" d="M410.3,91.8l-13.7,198.3l95.8-148.8L410.3,91.8z"/>
	<path class="st84" d="M492.4,141.4l-95.8,148.8l147.9,11.1L492.4,141.4z"/>
	<path class="st85" d="M492.4,141.4l52.2,159.9l48.7-40.2L492.4,141.4z"/>
	<path class="st86" d="M492.4,141.4l100.9,119.7L672.8,144L492.4,141.4z"/>
	<path class="st87" d="M672.8,144l-79.5,117.1l170.1,15.4L672.8,144z"/>
	<path class="st88" d="M672.8,144l90.6,132.5l-0.9-101.7L672.8,144z"/>
	<path class="st89" d="M762.6,174.7l0.9,101.7l144.5,12L762.6,174.7z"/>
	<path class="st90" d="M762.6,174.7l145.3,113.7L874.6,99.5L762.6,174.7z"/>
	<path class="st91" d="M874.6,99.5l33.3,188.9l89.8-60.7L874.6,99.5z"/>
	<path class="st92" d="M874.6,99.5l123.1,128.2l64.1-127.4L874.6,99.5z"/>
	<path class="st93" d="M1061.8,100.4l-64.1,127.4l137.7,13.7L1061.8,100.4z"/>
	<path class="st94" d="M1061.8,100.4l73.5,141.1l-3.4-119.7L1061.8,100.4z"/>
	<path class="st95" d="M1131.9,121.7l3.4,119.7l161.6-71L1131.9,121.7z"/>
	<path class="st96" d="M1296.9,170.5l-161.6,71l198.3,57.3L1296.9,170.5z"/>
	<path class="st97" d="M-42.8,244l58.1,129.1l65-107.7L-42.8,244z"/>
	<path class="st98" d="M80.3,265.4l-65,107.7l134.2-30.8L80.3,265.4z"/>
	<path class="st99" d="M80.3,265.4l69.3,76.9l75.2-77.8L80.3,265.4z"/>
	<path class="st100" d="M224.8,264.5l-75.2,77.8l143.6,79.5L224.8,264.5z"/>
	<path class="st101" d="M224.8,264.5l68.4,157.3l98.3-75.2L224.8,264.5z"/>
	<path class="st102" d="M224.8,264.5l166.7,82.1l5.1-56.4L224.8,264.5z"/>
	<path class="st103" d="M396.7,290.2l-5.1,56.4l153-45.3L396.7,290.2z"/>
	<path class="st104" d="M544.6,301.3l-153,45.3l96.6,77.8L544.6,301.3z"/>
	<path class="st105" d="M544.6,301.3l-56.4,123.1l151.3-89.8L544.6,301.3z"/>
	<path class="st106" d="M544.6,301.3l94.9,33.3l-46.2-73.5L544.6,301.3z"/>
	<path class="st107" d="M593.3,261.1l46.2,73.5l123.9-58.1L593.3,261.1z"/>
	<path class="st108" d="M763.4,276.5l-123.9,58.1l159,12L763.4,276.5z"/>
	<path class="st109" d="M763.4,276.5l35.1,70.1l109.4-58.1L763.4,276.5z"/>
	<path class="st110" d="M907.9,288.5l-109.4,58.1l129.9,87.2L907.9,288.5z"/>
	<path class="st111" d="M907.9,288.5l20.5,145.3l70.1-86.3L907.9,288.5z"/>
	<path class="st112" d="M907.9,288.5l90.6,59l-0.9-119.7L907.9,288.5z"/>
	<path class="st95" d="M997.7,227.7l0.9,119.7l136.8-106L997.7,227.7z"/>
	<path class="st96" d="M1135.3,241.4l-136.8,106l110.3,30.8L1135.3,241.4z"/>
	<path class="st113" d="M1135.3,241.4l-26.5,136.8l153,14.5L1135.3,241.4z"/>
	<path class="st113" d="M1135.3,241.4l126.5,151.3l71.8-94L1135.3,241.4z"/>
	<path class="st101" d="M15.4,373.1l277.9,48.7l-143.6-79.5L15.4,373.1z"/>
	<path class="st114" d="M293.2,421.8l635.2,12l-440.3-9.4L293.2,421.8z"/>
	<path class="st105" d="M293.2,421.8l194.9,2.6l-96.6-77.8L293.2,421.8z"/>
	<path class="st108" d="M488.1,424.4l440.3,9.4l-129.9-87.2L488.1,424.4z"/>
	<path class="st107" d="M488.1,424.4l310.3-77.8l-159-12L488.1,424.4z"/>
	<path class="st113" d="M928.4,433.8l333.4-41l-153-14.5L928.4,433.8z"/>
	<path class="st111" d="M928.4,433.8l180.4-55.6l-110.3-30.8L928.4,433.8z"/>
</g>
</svg>
