<?xml version="1.0" encoding="utf-8"?>
<!-- Generator: Adobe Illustrator 21.0.2, SVG Export Plug-In . SVG Version: 6.00 Build 0)  -->
<svg version="1.1" id="Layer_1" xmlns="http://www.w3.org/2000/svg" xmlns:xlink="http://www.w3.org/1999/xlink" x="0px" y="0px"
	 viewBox="0 0 44 52" style="enable-background:new 0 0 44 52;" xml:space="preserve">
<style type="text/css">
	.st0{fill:#FFFFFF;}
</style>
<g>
	<path class="st0" d="M18.1,0.3h1.8v19.9c-1.7,0-3.5,0-5.2,0v-8.8l-4.2,4.4H10l-4.2-4.4v8.8c-1.7,0-3.5,0-5.2,0V0.3h1.9l7.8,8.6
		L18.1,0.3z M17.5,18.2V5.1h-0.4l-6.9,7.3L3.4,5.1H3v13.2h0.3V5.4l6.9,7.3l7-7.3v12.8H17.5z"/>
	<path class="st0" d="M23.8,10.2c0-13.3,19.7-13.3,19.7,0C43.5,23.5,23.8,23.5,23.8,10.2z M41.1,10.2c0-10.3-14.9-10.3-14.9,0
		C26.2,20.5,41.1,20.5,41.1,10.2z M26.5,10.2c0,10,14.3,9.8,14.3,0C40.8,0.4,26.5,0.2,26.5,10.2z M38.5,10.2c0,7-9.6,7-9.6,0
		C28.9,3.3,38.5,3.3,38.5,10.2z"/>
	<path class="st0" d="M0.6,33.9c0-13.1,19.4-13.1,19.4,0C20,47,0.6,47,0.6,33.9z M17.6,33.9c0-10.2-14.7-10.1-14.7,0
		C3,44,17.6,44,17.6,33.9z M3.2,33.9c0,9.9,14.1,9.7,14.1,0C17.3,24.2,3.2,24,3.2,33.9z M15,33.9c0,6.9-9.5,6.9-9.5,0
		C5.5,27,15,27,15,33.9z"/>
	<path class="st0" d="M32.4,43.7h-8.6V24.1h8.6C47.2,24.2,47.2,43.7,32.4,43.7z M26.6,41.6h5.7c11.3,0,11.3-15.4,0-15.4h-5.7V41.6z
		 M32.3,26.5h-5.4v14.8h5.4C43.2,41.3,43.2,26.6,32.3,26.5z M29.6,28.7h2.8c7.2,0,7.2,10.5,0,10.5h-2.8V28.7z"/>
	<g>
		<path class="st0" d="M3.1,46.5c1.1,0,2.2,0.6,2.4,1.9c-0.4,0-0.8,0-1.3,0c-0.2-0.5-0.6-0.8-1.1-0.8c-0.8,0-1.3,0.6-1.3,1.4
			c0,0.7,0.5,1.4,1.3,1.4c0.6,0,1-0.3,1.1-0.8c0.4,0,0.8,0,1.3,0c-0.2,1.4-1.3,2-2.4,2c-1.3,0-2.6-0.9-2.6-2.6
			C0.5,47.3,1.8,46.5,3.1,46.5z"/>
		<path class="st0" d="M10.8,51.4v0.2H9.4l-0.9-1.5H7.8v1.5c-0.4,0-0.9,0-1.3,0c0-1.7,0-3.4,0-5.1c0.7,0,1.5,0,2.2,0
			c2,0,2.4,2.4,1.1,3.3L10.8,51.4z M8.8,47.7c-0.3,0-0.6,0-0.9,0c0,0.4,0,0.9,0,1.3h0.9C9.5,48.9,9.5,47.7,8.8,47.7z"/>
		<path class="st0" d="M14.8,47.7c-0.8,0-1.1,0-1.9,0v0.7h1.7c0,0.4,0,0.8,0,1.2h-1.7c0,0.3,0,0.6,0,0.9c0.7,0,1.2,0,2,0
			c0,0.4,0,0.8,0,1.2c-1.2,0-2.1,0-3.2,0c0-1.7,0-3.4,0-5.1c1.2,0,2,0,3.2,0C14.8,46.9,14.8,47.3,14.8,47.7z"/>
		<path class="st0" d="M18.9,51h-2l-0.3,0.6h-1.3v-0.2l2.3-5h0.6l2.3,5v0.2h-1.3L18.9,51z M17.9,48.5l-0.6,1.3h1.2L17.9,48.5z"/>
		<path class="st0" d="M20.4,47.7c0-0.4,0-0.8,0-1.2h3.8c0,0.4,0,0.8,0,1.2h-1.2v3.9c-0.4,0-0.9,0-1.3,0v-3.9H20.4z"/>
		<path class="st0" d="M27.2,50.5c0,0.4,0,0.7,0,1.1c-0.9,0-1.7,0-2.6,0c0-0.4,0-0.7,0-1.1h0.6v-2.8h-0.6c0-0.4,0-0.7,0-1.1
			c0.8,0,1.7,0,2.5,0c0,0.4,0,0.7,0,1.1h-0.6v2.8H27.2z"/>
		<path class="st0" d="M27.8,49.1c0-3.5,5.2-3.5,5.2,0C33,52.6,27.8,52.6,27.8,49.1z M31.7,49.1c0-1.8-2.6-1.8-2.6,0
			C29.1,50.9,31.7,50.9,31.7,49.1z"/>
		<path class="st0" d="M35.3,49.1v2.5c-0.5,0-0.9,0-1.3,0v-5.1h0.5L37,49v-2.5c0.4,0,0.9,0,1.3,0v5.1h-0.5L35.3,49.1z"/>
		<path class="st0" d="M42.2,50.1c0-0.4-0.4-0.4-0.9-0.4c-1.1-0.1-1.8-0.5-1.8-1.6c0-2.2,3.9-2.2,3.9,0c-0.5,0-0.8,0-1.2,0
			c0-0.7-1.4-0.6-1.4,0c0,0.4,0.3,0.5,0.8,0.5c1,0.1,2,0.2,2,1.5c0,2.1-4.1,2.2-4.1,0c0.4,0,0.8,0,1.3,0
			C40.6,50.7,42.2,50.7,42.2,50.1z"/>
	</g>
</g>
</svg>
