<?xml version="1.0" encoding="utf-8"?>
<!-- Generator: Adobe Illustrator 21.0.2, SVG Export Plug-In . SVG Version: 6.00 Build 0)  -->
<svg version="1.1" id="Layer_1" xmlns="http://www.w3.org/2000/svg" xmlns:xlink="http://www.w3.org/1999/xlink" x="0px" y="0px"
	 viewBox="0 0 918 310.7" style="enable-background:new 0 0 918 310.7;" xml:space="preserve">
<style type="text/css">
	.st0{fill:#FFFFFF;}
</style>
<g>
	<path class="st0" d="M184.1,3h19v208.8c-18.1,0-36.3,0-54.4,0V119l-44.3,46.4h-5.9l-44-46.4v92.8c-18.1,0-36.3,0-54.4,0V3h19.6
		l81.5,90.4L184.1,3z M177.5,191.2v-138h-4.2l-72.3,76.1L29.7,53.2h-3.9v138h3V57.1l72.3,76.7l73.5-76.7v134.1H177.5z"/>
	<path class="st0" d="M243.2,108c0-143.9,213.5-143.9,213.5,0C456.8,252.2,243.2,252.2,243.2,108z M430.9,108
		c0-111.8-161.5-111.5-161.5,0C269.4,219.8,430.9,219.8,430.9,108z M272.4,108c0,108.8,155.5,106.8,155.5,0
		C427.9,1.5,272.4-0.6,272.4,108z M402.3,108c0,75.5-104.4,75.5-104.4,0C298,33,402.3,33,402.3,108z"/>
	<path class="st0" d="M484.1,108c0-143.9,213.5-143.9,213.5,0C697.6,252.2,484.1,252.2,484.1,108z M671.8,108
		c0-111.8-161.5-111.5-161.5,0C510.3,219.8,671.8,219.8,671.8,108z M513.3,108c0,108.8,155.5,106.8,155.5,0
		C668.8,1.5,513.3-0.6,513.3,108z M643.2,108c0,75.5-104.4,75.5-104.4,0C538.8,33,643.2,33,643.2,108z"/>
	<path class="st0" d="M816.3,211.7h-78.5V3.6h78.5C951.9,4.2,951.9,211.1,816.3,211.7z M763.7,189.4h52c103.5,0,103.5-163.6,0-163.6
		h-52V189.4z M815.7,28.8h-49.4v157.3h49.4C915.6,185.9,915.6,29.4,815.7,28.8z M791,52h25.3c66.3,0,66.3,111.2,0,111.2H791V52z"/>
	<path class="st0" d="M270.2,255.1c11.2,0,23.2,6.1,25.3,20.5c-4.7,0-8.9,0-13.5,0c-1.9-5.5-6-7.9-11.8-7.9c-8.1,0-13.4,6.1-13.4,15
		c0,7.9,5.2,14.9,13.4,14.9c5.8,0,10.5-2.9,12-8.7c4.6,0,8.9,0,13.5,0c-2,15.2-14.1,21.2-25.6,21.2c-13.7,0.1-27.6-9.2-27.6-27.5
		C242.7,264.4,256.5,255.1,270.2,255.1z"/>
	<path class="st0" d="M351.8,307.6v2h-15.4l-9.2-15.9H320v15.9c-4.6,0-9.3,0-13.8,0c0-17.9,0-35.9,0-53.9c7.8,0,15.8,0,23.6,0
		c21.2,0.1,25,25.6,11.4,34.8L351.8,307.6z M329.9,268.1c-3.2-0.1-6.6,0-9.8,0c0,4.4,0,9,0,13.3h9.8
		C337.4,281.4,337.7,268.1,329.9,268.1z"/>
	<path class="st0" d="M393.8,268.1c-8,0-12,0-19.9,0v7.6h18.3c0,4.1,0,8.2,0,12.2h-18.3c0,3.2,0,6.2,0,9.5c7.9,0,12.5,0,20.6,0
		c0,4,0,8.2,0,12.2c-12.6,0-21.9,0-34.3,0c0-18,0-36,0-53.9c12.5,0,21,0,33.6,0C393.8,259.7,393.8,263.9,393.8,268.1z"/>
	<path class="st0" d="M437.4,302.8h-21.2l-3.2,6.8h-13.5v-2l24.2-52.6h5.9l24.3,52.6v2h-13.5L437.4,302.8z M426.7,276.8l-6,14.2
		h12.2L426.7,276.8z"/>
	<path class="st0" d="M452.8,268.1c0-4.2,0-8.2,0-12.3h40c0,4.1,0,8.2,0,12.3h-13.2v41.6c-4.5,0-9.1,0-13.6,0v-41.6H452.8z"/>
	<path class="st0" d="M525.4,297.5c0,4.5,0,7.4,0,12.1c-9.2,0-18.2,0-27.3,0c0-4.7,0-7.5,0-12.1h6.9v-29.8h-6.3c0-4.6,0-7.5,0-12
		c8.8,0,17.5,0,26.2,0c0,4.5,0,7.4,0,12h-6.3v29.8H525.4z"/>
	<path class="st0" d="M531.1,282.8c0-37.2,55.3-37.2,55.3,0C586.3,320.1,531.1,320.1,531.1,282.8z M572.3,282.8c0-19.4-27-19.4-27,0
		C545.2,302.3,572.3,302.3,572.3,282.8z"/>
	<path class="st0" d="M611,283.1v26.5c-4.8,0-9.5,0-14.2,0v-54.1h5l27.2,26.6v-26.4c4.7,0,9.4,0,14.1,0v54h-4.9L611,283.1z"/>
	<path class="st0" d="M683.2,293.5c0-3.8-4.5-4.4-9.9-4.7c-11.7-0.8-19.4-4.8-19.5-16.5c-0.5-23.2,41.4-23.2,41.1,0
		c-4.8,0-8.4,0-13.1,0c0-7.2-14.5-6.5-14.9-0.2c-0.3,4.1,3.7,4.9,8.5,5.5c10.7,1.2,21.2,2.5,21.2,16c0,22.6-43.9,23.2-43.6-0.5
		c4.6,0,8.6,0,13.3,0C666.3,300,683.2,299.8,683.2,293.5z"/>
</g>
</svg>
