<?xml version="1.0" encoding="utf-8"?>
<!-- Generator: Adobe Illustrator 21.0.2, SVG Export Plug-In . SVG Version: 6.00 Build 0)  -->
<svg version="1.1" id="All_glyphs" xmlns="http://www.w3.org/2000/svg" xmlns:xlink="http://www.w3.org/1999/xlink" x="0px" y="0px"
	 width="28" height="23" viewBox="0 0 28 23" style="enable-background:new 0 0 28 22.8;" xml:space="preserve">
<style type="text/css">
	.st0{fill:#FFFFFF;}
</style>
<path class="st0" d="M28,2.7c-1,0.5-2.1,0.8-3.3,0.9c1.2-0.7,2.1-1.8,2.5-3.2c-1.1,0.7-2.3,1.1-3.6,1.4C22.5,0.7,21,0,19.4,0
	c-3.2,0-5.7,2.6-5.7,5.7c0,0.5,0.1,0.9,0.1,1.3c-4.8-0.2-9-2.5-11.8-6C1.5,1.9,1.2,2.9,1.2,3.9c0,2,1,3.8,2.6,4.8
	C2.8,8.7,1.9,8.4,1.1,8c0,0,0,0,0,0.1c0,2.8,2,5.1,4.6,5.6c-0.5,0.1-1,0.2-1.5,0.2c-0.4,0-0.7,0-1.1-0.1c0.7,2.3,2.9,3.9,5.4,4
	c-2,1.5-4.4,2.5-7.1,2.5c-0.5,0-0.9,0-1.4-0.1c2.5,1.6,5.6,2.6,8.8,2.6c10.6,0,16.3-8.8,16.3-16.3c0-0.2,0-0.5,0-0.7
	C26.3,4.9,27.2,3.8,28,2.7z"/>
</svg>
