<?xml version="1.0" encoding="utf-8"?>
<!-- Generator: Adobe Illustrator 21.0.2, SVG Export Plug-In . SVG Version: 6.00 Build 0)  -->
<svg version="1.1" id="Layer_1" xmlns="http://www.w3.org/2000/svg" xmlns:xlink="http://www.w3.org/1999/xlink" x="0px" y="0px"
	 width="32" height="21" viewBox="0 0 32 21" style="enable-background:new 0 0 28 18.4;" xml:space="preserve">
<style type="text/css">
	.st0{fill:#FFFFFF;}
</style>
<path id="behance" class="st0" d="M18.4,1.8h7v1.8h-7V1.8z M28,12.6h-9.1c0.1,2.3,1.2,3.1,3.1,3.1c1.4,0,2.5-0.5,2.7-1.3h2.8
	c-1,3.1-2.8,3.9-5.6,3.9c-4,0-6.4-2.8-6.4-6.8c0-3.9,2.6-6.8,6.4-6.8C26.2,4.7,28.2,8.6,28,12.6z M18.9,9.9h5.6
	c-0.3-1.8-1.1-2.6-2.8-2.6c-1.4-0.1-2.7,0.9-2.9,2.4C18.9,9.8,18.9,9.9,18.9,9.9z M14.5,12.8c0,3.6-3,5.2-6.1,5.2H0V0h8.2
	c3.3,0,5.5,1.2,5.5,4.5c0.1,1.6-0.9,3.1-2.4,3.7C13.4,8.8,14.7,10.7,14.5,12.8L14.5,12.8z M7.1,3H3.5v4.2h3.9c1.3,0,2.3-0.6,2.3-2.1
	C9.7,3.4,8.4,3,7.1,3L7.1,3z M7.7,9.9H3.5v4.9h4.1c1.5,0,2.8-0.5,2.8-2.4C10.4,10.6,9.3,9.9,7.7,9.9L7.7,9.9z"/>
</svg>
