<?xml version="1.0" encoding="utf-8"?>
<!-- Generator: Adobe Illustrator 21.0.2, SVG Export Plug-In . SVG Version: 6.00 Build 0)  -->
<svg version="1.1" id="Layer_2" xmlns="http://www.w3.org/2000/svg" xmlns:xlink="http://www.w3.org/1999/xlink" x="0px" y="0px"
	 viewBox="0 0 1280 600" style="enable-background:new 0 0 1280 600;" xml:space="preserve">
<style type="text/css">
	.st0{fill:#F0F8FC;stroke:#F0F8FC;}
	.st1{fill:#FCFDFF;stroke:#FCFDFF;}
	.st2{fill:#FAFBFD;stroke:#FAFBFD;}
	.st3{fill:#F2F6FB;stroke:#F2F6FB;}
	.st4{fill:#F0F6FB;stroke:#F0F6FB;}
	.st5{fill:#E8F1F9;stroke:#E8F1F9;}
	.st6{fill:#E9EFF8;stroke:#E9EFF8;}
	.st7{fill:#E2EBF5;stroke:#E2EBF5;}
	.st8{fill:#D9E7F0;stroke:#D9E7F0;}
	.st9{fill:#C3DAE8;stroke:#C3DAE8;}
	.st10{fill:#DAE8F1;stroke:#DAE8F1;}
	.st11{fill:#D2E3ED;stroke:#D2E3ED;}
	.st12{fill:#C9DEEC;stroke:#C9DEEC;}
	.st13{fill:#C0D8E9;stroke:#C0D8E9;}
	.st14{fill:#B7D2E4;stroke:#B7D2E4;}
	.st15{fill:#ACC9E0;stroke:#ACC9E0;}
	.st16{fill:#B8D5E6;stroke:#B8D5E6;}
	.st17{fill:#ADCCE0;stroke:#ADCCE0;}
	.st18{fill:#A0BFD9;stroke:#A0BFD9;}
	.st19{fill:#99B7D3;stroke:#99B7D3;}
	.st20{fill:#91AFCE;stroke:#91AFCE;}
	.st21{fill:#8EABCA;stroke:#8EABCA;}
	.st22{fill:#88A4C6;stroke:#88A4C6;}
	.st23{fill:#859EC0;stroke:#859EC0;}
	.st24{fill:#8397BC;stroke:#8397BC;}
	.st25{fill:#808CB5;stroke:#808CB5;}
	.st26{fill:#7E84AE;stroke:#7E84AE;}
	.st27{fill:#EBF7FC;stroke:#EBF7FC;}
	.st28{fill:#D7ECF9;stroke:#D7ECF9;}
	.st29{fill:#DDEDF7;stroke:#DDEDF7;}
	.st30{fill:#D7EAF2;stroke:#D7EAF2;}
	.st31{fill:#C5E2EF;stroke:#C5E2EF;}
	.st32{fill:#BBDDED;stroke:#BBDDED;}
	.st33{fill:#C1DCEA;stroke:#C1DCEA;}
	.st34{fill:#B5D7E8;stroke:#B5D7E8;}
	.st35{fill:#A7CFE5;stroke:#A7CFE5;}
	.st36{fill:#9CC6DF;stroke:#9CC6DF;}
	.st37{fill:#A1C6DE;stroke:#A1C6DE;}
	.st38{fill:#92BBD8;stroke:#92BBD8;}
	.st39{fill:#96BAD5;stroke:#96BAD5;}
	.st40{fill:#87AFCE;stroke:#87AFCE;}
	.st41{fill:#89ADCC;stroke:#89ADCC;}
	.st42{fill:#7BA0C4;stroke:#7BA0C4;}
	.st43{fill:#7F99BE;stroke:#7F99BE;}
	.st44{fill:#728BB6;stroke:#728BB6;}
	.st45{fill:#7A85AF;stroke:#7A85AF;}
	.st46{fill:#5B78AD;stroke:#5B78AD;}
	.st47{fill:#375FA0;stroke:#375FA0;}
	.st48{fill:#DDF1FB;stroke:#DDF1FB;}
	.st49{fill:#C8E4F6;stroke:#C8E4F6;}
	.st50{fill:#BADCF3;stroke:#BADCF3;}
	.st51{fill:#BFDFF4;stroke:#BFDFF4;}
	.st52{fill:#B4DAF1;stroke:#B4DAF1;}
	.st53{fill:#A7D2EF;stroke:#A7D2EF;}
	.st54{fill:#A6D0EB;stroke:#A6D0EB;}
	.st55{fill:#95C7E9;stroke:#95C7E9;}
	.st56{fill:#91C4E8;stroke:#91C4E8;}
	.st57{fill:#98C8E5;stroke:#98C8E5;}
	.st58{fill:#8EC0E1;stroke:#8EC0E1;}
	.st59{fill:#7FB5DD;stroke:#7FB5DD;}
	.st60{fill:#73ACD8;stroke:#73ACD8;}
	.st61{fill:#7DB1D5;stroke:#7DB1D5;}
	.st62{fill:#78AACF;stroke:#78AACF;}
	.st63{fill:#6699C7;stroke:#6699C7;}
	.st64{fill:#6A95C0;stroke:#6A95C0;}
	.st65{fill:#5C86B9;stroke:#5C86B9;}
	.st66{fill:#6184B5;stroke:#6184B5;}
	.st67{fill:#5176B0;stroke:#5176B0;}
	.st68{fill:#3F68A9;stroke:#3F68A9;}
	.st69{fill:#98B4DA;stroke:#98B4DA;}
	.st70{fill:#ABCFED;stroke:#ABCFED;}
	.st71{fill:#9CC2E6;stroke:#9CC2E6;}
	.st72{fill:#A3CAEB;stroke:#A3CAEB;}
	.st73{fill:#8FBBE3;stroke:#8FBBE3;}
	.st74{fill:#85B2DB;stroke:#85B2DB;}
	.st75{fill:#8EBEE2;stroke:#8EBEE2;}
	.st76{fill:#80B2DC;stroke:#80B2DC;}
	.st77{fill:#85BAE1;stroke:#85BAE1;}
	.st78{fill:#82B9E1;stroke:#82B9E1;}
	.st79{fill:#6EA8D6;stroke:#6EA8D6;}
	.st80{fill:#68A4D5;stroke:#68A4D5;}
	.st81{fill:#548FC6;stroke:#548FC6;}
	.st82{fill:#4F8CC5;stroke:#4F8CC5;}
	.st83{fill:#5C98CD;stroke:#5C98CD;}
	.st84{fill:#4985BE;stroke:#4985BE;}
	.st85{fill:#5088C0;stroke:#5088C0;}
	.st86{fill:#4A7BB6;stroke:#4A7BB6;}
	.st87{fill:#3D6FAE;stroke:#3D6FAE;}
	.st88{fill:#2D61A4;stroke:#2D61A4;}
	.st89{fill:#28539A;stroke:#28539A;}
	.st90{fill:#8898C6;stroke:#8898C6;}
	.st91{fill:#8FA6D1;stroke:#8FA6D1;}
	.st92{fill:#94B2DC;stroke:#94B2DC;}
	.st93{fill:#89A8D4;stroke:#89A8D4;}
	.st94{fill:#84A8D4;stroke:#84A8D4;}
	.st95{fill:#789BCB;stroke:#789BCB;}
	.st96{fill:#6F8FC3;stroke:#6F8FC3;}
	.st97{fill:#6E96C6;stroke:#6E96C6;}
	.st98{fill:#6087BD;stroke:#6087BD;}
	.st99{fill:#5D8DC2;stroke:#5D8DC2;}
	.st100{fill:#4B76B2;stroke:#4B76B2;}
	.st101{fill:#4372B1;stroke:#4372B1;}
	.st102{fill:#487BB7;stroke:#487BB7;}
	.st103{fill:#376AAB;stroke:#376AAB;}
	.st104{fill:#3C72B2;stroke:#3C72B2;}
	.st105{fill:#376DAE;stroke:#376DAE;}
	.st106{fill:#24539A;stroke:#24539A;}
	.st107{fill:#235097;stroke:#235097;}
	.st108{fill:#153E86;stroke:#153E86;}
	.st109{fill:#16428B;stroke:#16428B;}
	.st110{fill:#1D387D;stroke:#1D387D;}
	.st111{fill:#8392C3;stroke:#8392C3;}
	.st112{fill:#7983B9;stroke:#7983B9;}
	.st113{fill:#758ABE;stroke:#758ABE;}
	.st114{fill:#6778B1;stroke:#6778B1;}
	.st115{fill:#6279B2;stroke:#6279B2;}
	.st116{fill:#637FB6;stroke:#637FB6;}
	.st117{fill:#546DA8;stroke:#546DA8;}
	.st118{fill:#5070AC;stroke:#5070AC;}
	.st119{fill:#4162A5;stroke:#4162A5;}
	.st120{fill:#3F63A6;stroke:#3F63A6;}
	.st121{fill:#305497;stroke:#305497;}
	.st122{fill:#2E5A9F;stroke:#2E5A9F;}
	.st123{fill:#224892;stroke:#224892;}
	.st124{fill:#28539B;stroke:#28539B;}
	.st125{fill:#18418B;stroke:#18418B;}
	.st126{fill:#1B397A;stroke:#1B397A;}
	.st127{fill:#1F3268;stroke:#1F3268;}
	.st128{fill:#203167;stroke:#203167;}
	.st129{fill:#1F2B59;stroke:#1F2B59;}
	.st130{fill:#202E61;stroke:#202E61;}
	.st131{fill:#31528E;stroke:#31528E;}
	.st132{fill:#4E689E;stroke:#4E689E;}
	.st133{fill:#6071A5;stroke:#6071A5;}
	.st134{fill:#576DA5;stroke:#576DA5;}
	.st135{fill:#395A98;stroke:#395A98;}
	.st136{fill:#1C3670;stroke:#1C3670;}
	.st137{fill:#143F81;stroke:#143F81;}
</style>
<g>
	<path class="st0" d="M-59-215.3l-7.7,367.4L-36.8,9L-59-215.3z"/>
	<path class="st1" d="M-59-215.3L-36.8,9l13.5-118.9L-59-215.3z"/>
	<path class="st2" d="M-59-215.3l35.8,105.4l153.7-86L-59-215.3z"/>
	<path class="st3" d="M-59-215.3L130.5-196l88-81.2L-59-215.3z"/>
	<path class="st4" d="M130.5-196l-153.7,86L168.2-79L130.5-196z"/>
	<path class="st5" d="M130.5-196l37.7,117l85.1-54.1L130.5-196z"/>
	<path class="st6" d="M130.5-196l122.8,62.8l-34.8-144.1L130.5-196z"/>
	<path class="st7" d="M218.5-277.2l34.8,144.1l119.9-53.2L218.5-277.2z"/>
	<path class="st8" d="M218.5-277.2l154.7,90.9l212.7-30.9L218.5-277.2z"/>
	<path class="st9" d="M218.5-277.2l367.4,59.9l427.3-82.2L218.5-277.2z"/>
	<path class="st10" d="M373.2-186.3l-119.9,53.2L465-117.6L373.2-186.3z"/>
	<path class="st11" d="M373.2-186.3l91.8,68.6l120.9-99.6L373.2-186.3z"/>
	<path class="st12" d="M585.9-217.2L465-117.6l120.9-16.4V-217.2z"/>
	<path class="st13" d="M585.9-217.2v83.1l149.9-78.3L585.9-217.2z"/>
	<path class="st14" d="M585.9-217.2l149.9,4.8l59.9-15.5L585.9-217.2z"/>
	<path class="st15" d="M585.9-217.2l209.8-10.6l217.5-71.5L585.9-217.2z"/>
	<path class="st16" d="M735.7-212.4l-149.9,78.3l136.3,60.9L735.7-212.4z"/>
	<path class="st17" d="M735.7-212.4L722.2-73.2l144.1-83.1L735.7-212.4z"/>
	<path class="st15" d="M735.7-212.4l130.5,56.1l-70.6-71.5L735.7-212.4z"/>
	<path class="st18" d="M795.7-227.9l70.6,71.5l147-143.1L795.7-227.9z"/>
	<path class="st19" d="M1013.2-299.4l-147,143.1l110.2,45.4L1013.2-299.4z"/>
	<path class="st20" d="M1013.2-299.4l-36.7,188.5l103.5-44.5L1013.2-299.4z"/>
	<path class="st21" d="M1013.2-299.4l66.7,144.1l44.5-87L1013.2-299.4z"/>
	<path class="st22" d="M1013.2-299.4l111.2,57l119.9-59L1013.2-299.4z"/>
	<path class="st23" d="M1124.4-242.4l-44.5,87l251.4,44.5L1124.4-242.4z"/>
	<path class="st24" d="M1124.4-242.4l206.9,131.5l-87-190.5L1124.4-242.4z"/>
	<path class="st25" d="M1244.3-301.3l87,190.5l104.4-110.2L1244.3-301.3z"/>
	<path class="st26" d="M1435.7-221.1l-104.4,110.2l134.4,2.9L1435.7-221.1z"/>
	<path class="st27" d="M-23.2-109.9L-36.8,9l143.1,34.8L-23.2-109.9z"/>
	<path class="st27" d="M-23.2-109.9L106.3,43.8L168.2-79L-23.2-109.9z"/>
	<path class="st28" d="M168.2-79L106.3,43.8l204,31.9L168.2-79z"/>
	<path class="st29" d="M168.2-79L310.3,75.7l-57-208.8L168.2-79z"/>
	<path class="st30" d="M253.3-133.1l57,208.8L465-117.6L253.3-133.1z"/>
	<path class="st31" d="M465-117.6L310.3,75.7l91.8,4.8L465-117.6z"/>
	<path class="st32" d="M465-117.6L402.2,80.6l181.8,23.2L465-117.6z"/>
	<path class="st33" d="M465-117.6l118.9,221.4l1.9-237.8L465-117.6z"/>
	<path class="st34" d="M585.9-134.1l-1.9,237.8L722.2-73.2L585.9-134.1z"/>
	<path class="st35" d="M722.2-73.2L583.9,103.8l149.9-72.5L722.2-73.2z"/>
	<path class="st36" d="M722.2-73.2l11.6,104.4l124.7,45.4L722.2-73.2z"/>
	<path class="st37" d="M722.2-73.2L858.5,76.7l7.7-233L722.2-73.2z"/>
	<path class="st38" d="M866.3-156.3l-7.7,233L968.7,7.1L866.3-156.3z"/>
	<path class="st39" d="M866.3-156.3L968.7,7.1l7.7-118L866.3-156.3z"/>
	<path class="st40" d="M976.5-110.9l-7.7,118l126.7,19.3L976.5-110.9z"/>
	<path class="st41" d="M976.5-110.9l118.9,137.3l-15.5-181.8L976.5-110.9z"/>
	<path class="st42" d="M1079.9-155.4l15.5,181.8l131.5,19.3L1079.9-155.4z"/>
	<path class="st43" d="M1079.9-155.4l147,201.1l104.4-156.6L1079.9-155.4z"/>
	<path class="st44" d="M1331.3-110.9L1226.9,45.7L1398,35.1L1331.3-110.9z"/>
	<path class="st45" d="M1331.3-110.9l66.7,146l67.7-143.1L1331.3-110.9z"/>
	<path class="st46" d="M1465.7-108L1398,35.1l18.4,315.2L1465.7-108z"/>
	<path class="st47" d="M1465.7-108l-49.3,458.3l52.2,123.8L1465.7-108z"/>
	<path class="st48" d="M-36.8,9l-30,143.1L106.3,43.8L-36.8,9z"/>
	<path class="st49" d="M106.3,43.8L-66.7,152.1L68.6,241L106.3,43.8z"/>
	<path class="st50" d="M106.3,43.8L68.6,241l233-59.9L106.3,43.8z"/>
	<path class="st51" d="M106.3,43.8l195.3,137.3l8.7-105.4L106.3,43.8z"/>
	<path class="st52" d="M310.3,75.7l-8.7,105.4L402.2,80.6L310.3,75.7z"/>
	<path class="st53" d="M402.2,80.6L301.6,181.1l153.7,21.3L402.2,80.6z"/>
	<path class="st54" d="M402.2,80.6l53.2,121.8l128.6-98.6L402.2,80.6z"/>
	<path class="st55" d="M583.9,103.8l-128.6,98.6l71.5,11.6L583.9,103.8z"/>
	<path class="st56" d="M583.9,103.8l-57,110.2l176.9-61.9L583.9,103.8z"/>
	<path class="st57" d="M583.9,103.8l119.9,48.3l30-120.9L583.9,103.8z"/>
	<path class="st58" d="M733.8,31.2l-30,120.9l154.7-75.4L733.8,31.2z"/>
	<path class="st59" d="M858.5,76.7l-154.7,75.4l162.4,35.8L858.5,76.7z"/>
	<path class="st60" d="M858.5,76.7l7.7,111.2l79.3-16.4L858.5,76.7z"/>
	<path class="st61" d="M858.5,76.7l87,94.8L968.7,7.1L858.5,76.7z"/>
	<path class="st62" d="M968.7,7.1l-23.2,164.4l149.9-145L968.7,7.1z"/>
	<path class="st63" d="M1095.4,26.4l-149.9,145l246.5-34.8L1095.4,26.4z"/>
	<path class="st64" d="M1095.4,26.4l96.7,110.2l34.8-90.9L1095.4,26.4z"/>
	<path class="st65" d="M1226.9,45.7l-34.8,90.9l140.2,18.4L1226.9,45.7z"/>
	<path class="st66" d="M1226.9,45.7L1332.3,155L1398,35.1L1226.9,45.7z"/>
	<path class="st67" d="M1398,35.1L1332.3,155l34.8,82.2L1398,35.1z"/>
	<path class="st68" d="M1398,35.1l-30.9,202.1l49.3,113.1L1398,35.1z"/>
	<path class="st69" d="M-66.7,152.1l15.5,464.1l10.6-231.1L-66.7,152.1z"/>
	<path class="st70" d="M-66.7,152.1l26.1,233L68.6,241L-66.7,152.1z"/>
	<path class="st71" d="M68.6,241L-40.6,385.1l161.5-99.6L68.6,241z"/>
	<path class="st72" d="M68.6,241l52.2,44.5l180.8-104.4L68.6,241z"/>
	<path class="st73" d="M301.6,181.1L120.8,285.5L309.4,387L301.6,181.1z"/>
	<path class="st74" d="M301.6,181.1l7.7,205.9l52.2-16.4L301.6,181.1z"/>
	<path class="st75" d="M301.6,181.1l59.9,189.5l93.8-168.2L301.6,181.1z"/>
	<path class="st76" d="M455.3,202.4l-93.8,168.2l173.1-67.7L455.3,202.4z"/>
	<path class="st77" d="M455.3,202.4l79.3,100.5l-7.7-88.9L455.3,202.4z"/>
	<path class="st78" d="M526.9,214l7.7,88.9l169.2-150.8L526.9,214z"/>
	<path class="st79" d="M703.8,152.1L534.6,302.9l182.7,77.3L703.8,152.1z"/>
	<path class="st80" d="M703.8,152.1l13.5,228.2l148.9-192.4L703.8,152.1z"/>
	<path class="st81" d="M866.3,187.9L717.4,380.3L844,392.8L866.3,187.9z"/>
	<path class="st82" d="M866.3,187.9l-22.2,205l95.7-78.3L866.3,187.9z"/>
	<path class="st83" d="M866.3,187.9l73.5,126.7l5.8-143.1L866.3,187.9z"/>
	<path class="st84" d="M945.5,171.4l-5.8,143.1l243.6-16.4L945.5,171.4z"/>
	<path class="st85" d="M945.5,171.4l237.8,126.7l8.7-161.5L945.5,171.4z"/>
	<path class="st86" d="M1192.1,136.6l-8.7,161.5L1332.3,155L1192.1,136.6z"/>
	<path class="st87" d="M1332.3,155l-148.9,143.1l183.7-60.9L1332.3,155z"/>
	<path class="st88" d="M1367.1,237.2l-183.7,60.9l82.2,84.1L1367.1,237.2z"/>
	<path class="st89" d="M1367.1,237.2l-101.5,145l150.8-31.9L1367.1,237.2z"/>
	<path class="st90" d="M-40.6,385.1l-10.6,231.1l19.3-149.9L-40.6,385.1z"/>
	<path class="st91" d="M-40.6,385.1l8.7,81.2l102.5-25.1L-40.6,385.1z"/>
	<path class="st92" d="M-40.6,385.1l111.2,56.1l50.3-155.7L-40.6,385.1z"/>
	<path class="st93" d="M120.8,285.5L70.5,441.2l217.5-6.8L120.8,285.5z"/>
	<path class="st94" d="M120.8,285.5l167.3,148.9l21.3-47.4L120.8,285.5z"/>
	<path class="st95" d="M309.4,387l-21.3,47.4l73.5-63.8L309.4,387z"/>
	<path class="st96" d="M361.6,370.6l-73.5,63.8l150.8,88L361.6,370.6z"/>
	<path class="st97" d="M361.6,370.6l77.3,151.8l95.7-219.5L361.6,370.6z"/>
	<path class="st98" d="M534.6,302.9l-95.7,219.5l174-20.3L534.6,302.9z"/>
	<path class="st99" d="M534.6,302.9l78.3,199.2l104.4-121.8L534.6,302.9z"/>
	<path class="st100" d="M717.4,380.3L612.9,502.1l121.8,24.2L717.4,380.3z"/>
	<path class="st101" d="M717.4,380.3l17.4,146l101.5-68.7L717.4,380.3z"/>
	<path class="st102" d="M717.4,380.3l118.9,77.3l7.7-64.8L717.4,380.3z"/>
	<path class="st103" d="M844,392.8l-7.7,64.8l180.8-9.7L844,392.8z"/>
	<path class="st104" d="M844,392.8l173.1,55.1l-77.3-133.4L844,392.8z"/>
	<path class="st105" d="M939.7,314.5l77.3,133.4l166.3-149.9L939.7,314.5z"/>
	<path class="st106" d="M1183.4,298.1L1017.1,448l154.7,88.9L1183.4,298.1z"/>
	<path class="st107" d="M1183.4,298.1l-11.6,238.8l93.8-154.7L1183.4,298.1z"/>
	<path class="st108" d="M1265.6,382.2l-93.8,154.7l113.1-20.3L1265.6,382.2z"/>
	<path class="st109" d="M1265.6,382.2l19.3,134.4l131.5-166.3L1265.6,382.2z"/>
	<path class="st110" d="M1416.4,350.3l-131.5,166.3l183.7-42.5L1416.4,350.3z"/>
	<path class="st111" d="M-31.9,466.3l-19.3,149.9l121.8-175L-31.9,466.3z"/>
	<path class="st112" d="M70.5,441.2l-121.8,175l171.1,32.9L70.5,441.2z"/>
	<path class="st113" d="M70.5,441.2l49.3,207.9l168.2-214.6L70.5,441.2z"/>
	<path class="st114" d="M288.1,434.4L119.9,649.1l185.6-36.7L288.1,434.4z"/>
	<path class="st115" d="M288.1,434.4l17.4,177.9l95.7-24.2L288.1,434.4z"/>
	<path class="st116" d="M288.1,434.4l113.1,153.7l37.7-65.7L288.1,434.4z"/>
	<path class="st117" d="M438.9,522.4l-37.7,65.7l142.1,13.5L438.9,522.4z"/>
	<path class="st118" d="M438.9,522.4l104.4,79.3l69.6-99.6L438.9,522.4z"/>
	<path class="st119" d="M612.9,502.1l-69.6,99.6l182.7,14.5L612.9,502.1z"/>
	<path class="st120" d="M612.9,502.1l113.1,114.1l8.7-89.9L612.9,502.1z"/>
	<path class="st121" d="M734.8,526.3l-8.7,89.9l147,29L734.8,526.3z"/>
	<path class="st122" d="M734.8,526.3L873,645.2l-36.7-187.6L734.8,526.3z"/>
	<path class="st123" d="M836.3,457.6L873,645.2l146-28L836.3,457.6z"/>
	<path class="st124" d="M836.3,457.6L1019,617.2l-1.9-169.2L836.3,457.6z"/>
	<path class="st125" d="M1017.1,448l1.9,169.2l152.8-80.3L1017.1,448z"/>
	<path class="st126" d="M1171.8,536.9L1019,617.2l69.6,29L1171.8,536.9z"/>
	<path class="st127" d="M1171.8,536.9l-83.1,109.3l242.7,29L1171.8,536.9z"/>
	<path class="st128" d="M1171.8,536.9l159.5,138.3l-46.4-158.6L1171.8,536.9z"/>
	<path class="st129" d="M1284.9,516.6l46.4,158.6l67.7-4.8L1284.9,516.6z"/>
	<path class="st130" d="M1284.9,516.6L1399,670.3l69.6-196.3L1284.9,516.6z"/>
	<path class="st131" d="M119.9,649.1l1211.4,26.1l-458.3-30L119.9,649.1z"/>
	<path class="st132" d="M119.9,649.1l753.2-3.9l-329.7-43.5L119.9,649.1z"/>
	<path class="st133" d="M119.9,649.1l423.5-47.4l-237.8,10.6L119.9,649.1z"/>
	<path class="st134" d="M305.5,612.3l237.8-10.6l-142.1-13.5L305.5,612.3z"/>
	<path class="st135" d="M543.3,601.7L873,645.2l-147-29L543.3,601.7z"/>
	<path class="st136" d="M873,645.2l458.3,30l-242.7-29L873,645.2z"/>
	<path class="st137" d="M873,645.2l215.6,1l-69.6-29L873,645.2z"/>
</g>
</svg>
