<?xml version="1.0" encoding="utf-8"?>
<!-- Generator: Adobe Illustrator 21.0.2, SVG Export Plug-In . SVG Version: 6.00 Build 0)  -->
<svg version="1.1" id="All_glyphs" xmlns="http://www.w3.org/2000/svg" xmlns:xlink="http://www.w3.org/1999/xlink" x="0px" y="0px"
	 width="23" height="23" viewBox="0 0 23 23" style="enable-background:new 0 0 23 23;" xml:space="preserve">
<style type="text/css">
	.st0{fill:#FFFFFF;}
</style>
<path class="st0" d="M11,8.3c-1.7-3-3.5-5.5-3.6-5.7C4.6,3.9,2.5,6.4,1.9,9.5C2.1,9.5,6.2,9.5,11,8.3z M12.2,11.6
	c0.1,0,0.3-0.1,0.4-0.1c-0.2-0.6-0.5-1.1-0.8-1.7c-5.1,1.5-9.9,1.4-10.1,1.4c0,0.1,0,0.2,0,0.3c0,2.5,1,4.8,2.5,6.6c0,0,0,0,0,0
	S6.9,13.3,12.2,11.6z M5.5,19.2L5.5,19.2c-0.1-0.1-0.1-0.1-0.2-0.2C5.4,19.2,5.5,19.2,5.5,19.2z M9.1,2C9.1,2,9.1,2,9.1,2
	C9.1,2,9.1,2,9.1,2L9.1,2z M18,4.1c-1.7-1.5-4-2.5-6.5-2.5c-0.8,0-1.6,0.1-2.3,0.3c0.1,0.2,2,2.6,3.7,5.7C16.6,6.3,18,4.2,18,4.1z
	 M11.5,23C5.1,23,0,17.9,0,11.5C0,5.1,5.1,0,11.5,0C17.9,0,23,5.1,23,11.5C23,17.9,17.9,23,11.5,23z M13.2,13.1
	c-5.8,2-7.7,6-7.7,6.1c1.7,1.3,3.8,2.1,6,2.1c1.4,0,2.7-0.3,3.8-0.8C15.2,19.7,14.6,16.7,13.2,13.1C13.2,13.1,13.2,13.1,13.2,13.1z
	 M13.6,9.1c0.2,0.5,0.4,0.9,0.7,1.4c0.1,0.2,0.1,0.3,0.2,0.5c3.4-0.4,6.7,0.3,6.8,0.3c0-2.3-0.9-4.5-2.2-6.1
	C19.1,5.3,17.5,7.6,13.6,9.1z M15.1,12.6c1.3,3.5,1.8,6.4,1.9,7c2.2-1.5,3.8-3.8,4.2-6.6C21,13,18.3,12.1,15.1,12.6z"/>
</svg>
