<?xml version="1.0" encoding="utf-8"?>
<!-- Generator: Adobe Illustrator 21.0.2, SVG Export Plug-In . SVG Version: 6.00 Build 0)  -->
<svg version="1.1" id="Layer_1" xmlns="http://www.w3.org/2000/svg" xmlns:xlink="http://www.w3.org/1999/xlink" x="0px" y="0px"
	 viewBox="0 0 41.2 41.2" style="enable-background:new 0 0 41.2 41.2;" xml:space="preserve">
<style type="text/css">
	.st0{fill:none;enable-background:new    ;}
	.st1{fill:#FFFFFF;}
</style>
<title>Layer 1</title>
<path class="st0" d="z"/>
<path class="st0" d="z"/>
<g>
	<path class="st1" d="M20.6,26.1c-3,0-5.5-2.5-5.5-5.5s2.5-5.5,5.5-5.5c3,0,5.5,2.5,5.5,5.5S23.6,26.1,20.6,26.1z M20.6,16.1
		c-2.5,0-4.5,2-4.5,4.5s2,4.5,4.5,4.5s4.5-2,4.5-4.5S23.1,16.1,20.6,16.1z"/>
	<path class="st1" d="M20.6,30.6c-5.5,0-10.1-4.5-10.1-10.1S15,10.5,20.6,10.5c5.5,0,10.1,4.5,10.1,10.1S26.1,30.6,20.6,30.6z
		 M20.6,11.5c-5,0-9.1,4.1-9.1,9.1s4.1,9.1,9.1,9.1s9.1-4.1,9.1-9.1S25.6,11.5,20.6,11.5z"/>
	<path class="st1" d="M20.6,35.6c-8.3,0-15-6.7-15-15s6.7-15,15-15c8.3,0,15,6.7,15,15S28.9,35.6,20.6,35.6z M20.6,6.5
		c-7.7,0-14,6.3-14,14s6.3,14,14,14s14-6.3,14-14S28.3,6.5,20.6,6.5z"/>
	<path class="st1" d="M20.6,41.2C9.2,41.2,0,31.9,0,20.6S9.2,0,20.6,0s20.6,9.2,20.6,20.6S31.9,41.2,20.6,41.2z M20.6,1
		C9.8,1,1,9.8,1,20.6s8.8,19.6,19.6,19.6c10.8,0,19.6-8.8,19.6-19.6S31.4,1,20.6,1z"/>
</g>
</svg>
